<svg xmlns="http://www.w3.org/2000/svg" width="48" height="48" viewBox="0 0 48 48" fill="none">
  <path d="M23.9045 1.27271C29.9291 1.27148 35.7076 3.66229 39.9701 7.9197C44.2326 12.1771 46.6304 17.9527 46.6364 23.9772L23.9092 24L23.9045 1.27271Z" fill="white" stroke="black" stroke-linejoin="round"/>
  <path d="M46.6364 24.0001C46.6364 28.4938 45.3043 32.8866 42.8084 36.6234C40.3125 40.3602 36.7648 43.2732 32.6138 44.9943C28.4628 46.7154 23.8947 47.1673 19.4869 46.293C15.0791 45.4186 11.0294 43.2571 7.84972 40.0818C4.67 36.9065 2.50295 32.8599 1.62245 28.4533C0.74195 24.0467 1.18752 19.478 2.90286 15.3246C4.61819 11.1712 7.52629 7.6195 11.2596 5.1184C14.9929 2.6173 19.3839 1.27907 23.8776 1.27283L23.9092 24.0001H46.6364Z" fill="white" stroke="black" stroke-linejoin="round"/>
</svg>