<?xml version="1.0" encoding="utf-8"?>
<!-- Generator: Adobe Illustrator 26.0.0, SVG Export Plug-In . SVG Version: 6.00 Build 0)  -->
<svg version="1.1" id="Layer_1" xmlns="http://www.w3.org/2000/svg" xmlns:xlink="http://www.w3.org/1999/xlink" x="0px" y="0px"
	 viewBox="0 0 800 800" style="enable-background:new 0 0 800 800;" xml:space="preserve">
<style type="text/css">
	.st0{fill:#48CAE4;}
</style>
<g>
	<g>
		<g>
			<path class="st0" d="M754.8,105.6H45.2C20.3,105.6,0,125.9,0,150.8v65.5c0,24.9,20.3,45.2,45.2,45.2h709.6
				c24.9,0,45.2-20.3,45.2-45.2v-65.5C800,125.9,779.7,105.6,754.8,105.6z"/>
			<path class="st0" d="M754.8,322H45.2C20.3,322,0,342.3,0,367.2v65.6C0,457.7,20.3,478,45.2,478h709.6c24.9,0,45.2-20.3,45.2-45.2
				v-65.6C800,342.3,779.7,322,754.8,322z"/>
			<path class="st0" d="M754.8,538.4H45.2C20.3,538.4,0,558.7,0,583.6v65.5c0,24.9,20.3,45.2,45.2,45.2h709.6
				c24.9,0,45.2-20.3,45.2-45.2v-65.5C800,558.7,779.7,538.4,754.8,538.4z"/>
		</g>
	</g>
</g>
</svg>
