<svg xmlns="http://www.w3.org/2000/svg" width="48" height="48" viewBox="0 0 48 48" fill="none">
  <path d="M23.9954 1.11768C30.0376 1.11645 35.8331 3.51429 40.1082 7.78422C44.3832 12.0541 46.7881 17.8468 46.7941 23.889L24 23.9118L23.9954 1.11768Z" fill="black" stroke="white" stroke-linejoin="round"/>
  <path d="M46.794 23.9118C46.794 28.4187 45.458 32.8245 42.9547 36.5723C40.4515 40.3201 36.8934 43.2416 32.7302 44.9678C28.5669 46.694 23.9854 47.1472 19.5647 46.2703C15.1439 45.3933 11.0823 43.2255 7.89326 40.0409C4.70419 36.8562 2.53076 32.7977 1.64767 28.3781C0.764582 23.9586 1.21147 19.3765 2.93184 15.2108C4.65222 11.0452 7.56887 7.48307 11.3132 4.97462C15.0575 2.46617 19.4614 1.124 23.9683 1.11774L23.9999 23.9118H46.794Z" fill="black" stroke="white" stroke-linejoin="round"/>
</svg>