<?xml version="1.0" encoding="utf-8"?>
<!-- Generator: Adobe Illustrator 26.0.0, SVG Export Plug-In . SVG Version: 6.00 Build 0)  -->
<svg version="1.1" id="Layer_1" xmlns="http://www.w3.org/2000/svg" xmlns:xlink="http://www.w3.org/1999/xlink" x="0px" y="0px"
	 viewBox="0 0 448 512" style="enable-background:new 0 0 448 512;" xml:space="preserve">
<style type="text/css">
	.st0{fill:#48CAE4;}
</style>
<path class="st0" d="M224,0c-17.7,0-32,14.3-32,32v19.2C119,66,64,130.6,64,208v18.8c0,47-17.3,92.4-48.5,127.6l-7.4,8.3
	c-8.4,9.4-10.4,22.9-5.3,34.4S19.4,416,32,416h384c12.6,0,24-7.4,29.2-18.9s3.1-25-5.3-34.4l-7.4-8.3
	c-31.2-35.2-48.5-80.5-48.5-127.6V208c0-77.4-55-142-128-156.8V32C256,14.3,241.7,0,224,0z M269.3,493.3c12-12,18.7-28.3,18.7-45.3
	h-64h-64c0,17,6.7,33.3,18.7,45.3S207,512,224,512S257.3,505.3,269.3,493.3z"/>
</svg>
