<?xml version="1.0" encoding="utf-8"?>
<!-- Generator: Adobe Illustrator 26.0.0, SVG Export Plug-In . SVG Version: 6.00 Build 0)  -->
<svg version="1.1" id="Layer_1" xmlns="http://www.w3.org/2000/svg" xmlns:xlink="http://www.w3.org/1999/xlink" x="0px" y="0px"
	 viewBox="0 0 110 110" style="enable-background:new 0 0 110 110;" xml:space="preserve">
<style type="text/css">
	.st0{fill:#158BFF;}
	.st1{fill:#F9BA8F;}
	.st2{fill:#FCAD6D;}
	.st3{fill:#35355E;}
	.st4{clip-path:url(#SVGID_00000178178973733869202790000005834171444378675333_);}
	.st5{fill:#FFF5EE;}
</style>
<g id="Profile-Icon-SVG-09856789" transform="translate(-1516.251 -194.002)">
	<path id="Profile-Icon-SVG-09856789-2" class="st0" d="M1571.3,194c30.4,0,55,24.6,55,55s-24.6,55-55,55s-55-24.6-55-55
		S1540.9,194,1571.3,194z"/>
	<g id="Group_6" transform="translate(-84.749 111)">
		<circle id="Ellipse_6" class="st1" cx="1675.5" cy="132.3" r="4.4"/>
		<circle id="Ellipse_7" class="st1" cx="1636.9" cy="132.3" r="4.4"/>
		<path id="Path_4" class="st2" d="M1655.9,171l-10.6-12.7v-12.7h21.2v12.7L1655.9,171z"/>
		<path id="Path_5" class="st1" d="M1675,120.1c0-16.1-38.2-10.6-38.2,0v14.8c0,10.5,8.5,19.1,19.1,19.1c10.5,0,19.1-8.5,19.1-19.1
			V120.1z"/>
		<path id="Path_6" class="st3" d="M1655.9,101c-12.9,0-21.2,10.4-21.2,23.3v4.9l4.2,3.6v-10.6l25.4-8.5l8.5,8.5v10.6l4.2-3.6v-4.9
			c0-8.5-2.1-17-12.7-19.1l-2.1-4.2H1655.9z"/>
		<g>
			<defs>
				<circle id="SVGID_1_" cx="1656" cy="138" r="55"/>
			</defs>
			<clipPath id="SVGID_00000163031869743057722330000010657173995855206832_">
				<use xlink:href="#SVGID_1_"  style="overflow:visible;"/>
			</clipPath>
			<g id="Mask_Group_2" style="clip-path:url(#SVGID_00000163031869743057722330000010657173995855206832_);">
				<path id="Path_7" class="st5" d="M1666.5,158.3L1666.5,158.3c-3.3,1.4-7,2.2-10.6,2.1c-3.6,0.1-7.3-0.7-10.6-2.1
					c0,0-23.3,4.2-23.3,27.6l33.5,9.8l34.3-9.8C1689.9,162.5,1666.5,158.3,1666.5,158.3z"/>
			</g>
		</g>
	</g>
</g>
</svg>
