<?xml version="1.0" encoding="utf-8"?>
<!-- Generator: Adobe Illustrator 26.0.0, SVG Export Plug-In . SVG Version: 6.00 Build 0)  -->
<svg version="1.1" id="Capa_1" xmlns="http://www.w3.org/2000/svg" xmlns:xlink="http://www.w3.org/1999/xlink" x="0px" y="0px"
	 viewBox="0 0 800 800" style="enable-background:new 0 0 800 800;" xml:space="preserve">
<style type="text/css">
	.st0{fill:#FFFF00;}
</style>
<circle class="st0" cx="400" cy="400" r="176.7"/>
<path class="st0" d="M400,605.6c-113.4,0-205.6-92.2-205.6-205.6S286.6,194.4,400,194.4S605.6,286.6,605.6,400
	S513.4,605.6,400,605.6z M400,252.2c-81.5,0-147.8,66.3-147.8,147.8S318.5,547.8,400,547.8S547.8,481.5,547.8,400
	S481.5,252.2,400,252.2z"/>
<path class="st0" d="M400,151.8c-16,0-28.9-12.9-28.9-28.9v-94C371.1,12.9,384,0,400,0s28.9,12.9,28.9,28.9v94
	C428.9,138.8,416,151.8,400,151.8z"/>
<path class="st0" d="M400,800c-16,0-28.9-12.9-28.9-28.9v-94c0-16,12.9-28.9,28.9-28.9s28.9,12.9,28.9,28.9v94
	C428.9,787.1,416,800,400,800z"/>
<path class="st0" d="M771.1,428.9h-94c-16,0-28.9-12.9-28.9-28.9s12.9-28.9,28.9-28.9h94c16,0,28.9,12.9,28.9,28.9
	S787.1,428.9,771.1,428.9z"/>
<path class="st0" d="M122.9,428.9h-94C12.9,428.9,0,416,0,400s12.9-28.9,28.9-28.9h94c16,0,28.9,12.9,28.9,28.9
	S138.8,428.9,122.9,428.9z"/>
<path class="st0" d="M596,232.9c-7.4,0-14.8-2.8-20.4-8.5c-11.3-11.3-11.3-29.6,0-40.9l66.4-66.4c11.3-11.3,29.6-11.3,40.9,0
	c11.3,11.3,11.3,29.6,0,40.9l-66.4,66.4C610.8,230.1,603.4,232.9,596,232.9z"/>
<path class="st0" d="M137.6,691.3c-7.4,0-14.8-2.8-20.4-8.5c-11.3-11.3-11.3-29.6,0-40.9l66.4-66.4c11.3-11.3,29.6-11.3,40.9,0
	c11.3,11.3,11.3,29.6,0,40.9L158,682.8C152.4,688.5,145,691.3,137.6,691.3z"/>
<path class="st0" d="M662.4,691.3c-7.4,0-14.8-2.8-20.4-8.5l-66.4-66.4c-11.3-11.3-11.3-29.6,0-40.9c11.3-11.3,29.6-11.3,40.9,0
	l66.4,66.4c11.3,11.3,11.3,29.6,0,40.9C677.2,688.5,669.8,691.3,662.4,691.3z"/>
<path class="st0" d="M204,232.9c-7.4,0-14.8-2.8-20.4-8.5L117.2,158c-11.3-11.3-11.3-29.6,0-40.9s29.6-11.3,40.9,0l66.4,66.4
	c11.3,11.3,11.3,29.6,0,40.9C218.8,230.1,211.4,232.9,204,232.9z"/>
</svg>
